<svg xmlns="http://www.w3.org/2000/svg" width="1280" height="640" viewBox="0 0 1280 640" role="img" aria-labelledby="title desc">
  <title id="title">Campamento de Invierno ICPC 2026</title>
  <desc id="desc">Banner temporal con estética azul sobria para el sitio del Campamento de Invierno ICPC 2026.</desc>
  <rect width="1280" height="640" fill="#0b1020"/>
  <path d="M0 510H1280V640H0Z" fill="#10141c"/>
  <path d="M0 512H1280" stroke="#1976d2" stroke-width="2" opacity="0.62"/>
  <g opacity="0.28" stroke="#39404d" stroke-width="1">
    <path d="M80 0V640"/>
    <path d="M240 0V640"/>
    <path d="M400 0V640"/>
    <path d="M560 0V640"/>
    <path d="M720 0V640"/>
    <path d="M880 0V640"/>
    <path d="M1040 0V640"/>
    <path d="M1200 0V640"/>
    <path d="M0 80H1280"/>
    <path d="M0 200H1280"/>
    <path d="M0 320H1280"/>
    <path d="M0 440H1280"/>
    <path d="M0 560H1280"/>
  </g>
  <g transform="translate(72 72)">
    <rect x="0" y="0" width="144" height="44" rx="8" fill="#1976d2"/>
    <text x="72" y="29" text-anchor="middle" font-family="Inter, Segoe UI, Arial, sans-serif" font-size="18" font-weight="700" fill="#ffffff">ICPC 2026</text>
  </g>
  <g transform="translate(72 174)">
    <text font-family="Inter, Segoe UI, Arial, sans-serif" font-size="76" font-weight="800" fill="#f0f6fc">Campamento de Invierno</text>
    <text y="92" font-family="Inter, Segoe UI, Arial, sans-serif" font-size="76" font-weight="800" fill="#42a5f5">ICPC 2026</text>
    <text y="156" font-family="Inter, Segoe UI, Arial, sans-serif" font-size="30" font-weight="500" fill="#c7cad4">Clases, apuntes, ejercicios y soluciones en C++</text>
  </g>
  <g transform="translate(72 500)" font-family="Inter, Segoe UI, Arial, sans-serif" font-size="24" font-weight="700">
    <rect x="0" y="0" width="174" height="56" rx="8" fill="#151a22" stroke="#1976d2" stroke-opacity="0.7"/>
    <text x="87" y="36" text-anchor="middle" fill="#42a5f5">Inicial</text>
    <rect x="194" y="0" width="194" height="56" rx="8" fill="#151a22" stroke="#1976d2" stroke-opacity="0.7"/>
    <text x="291" y="36" text-anchor="middle" fill="#42a5f5">Avanzado</text>
    <rect x="408" y="0" width="204" height="56" rx="8" fill="#151a22" stroke="#1976d2" stroke-opacity="0.7"/>
    <text x="510" y="36" text-anchor="middle" fill="#42a5f5">Ejercicios</text>
  </g>
  <g transform="translate(903 116)" fill="none" stroke-linecap="round" stroke-linejoin="round">
    <rect x="0" y="0" width="260" height="300" rx="16" fill="#111620" stroke="#1976d2" stroke-opacity="0.78" stroke-width="3"/>
    <path d="M28 58H232" stroke="#42a5f5" stroke-width="14"/>
    <path d="M28 102H186" stroke="#9aa4b2" stroke-width="12"/>
    <path d="M28 144H218" stroke="#9aa4b2" stroke-width="12"/>
    <path d="M28 186H154" stroke="#9aa4b2" stroke-width="12"/>
    <path d="M28 230H112" stroke="#1976d2" stroke-width="14"/>
    <path d="M134 230H218" stroke="#42a5f5" stroke-width="14"/>
    <path d="M68 300L126 370L238 210" stroke="#42a5f5" stroke-width="26"/>
  </g>
</svg>
